<svg width="468" height="468" viewBox="0 0 468 468" fill="none" xmlns="http://www.w3.org/2000/svg">
<rect width="468" height="468" rx="66" fill="url(#paint0_radial_7_2)"/>
<path d="M302.653 360.435C287.285 360.435 275.081 356.254 266.041 347.892C257.001 339.304 252.481 327.665 252.481 312.975L260.278 321.45H252.481V357.045H216.208V109.575H252.82V162.798L251.803 206.19H260.278L252.481 214.665C252.481 199.975 257.001 188.449 266.041 180.087C275.307 171.499 287.511 167.205 302.653 167.205C321.411 167.205 336.44 173.533 347.74 186.189C359.04 198.845 364.69 216.021 364.69 237.717V290.262C364.69 311.732 359.04 328.795 347.74 341.451C336.44 354.107 321.411 360.435 302.653 360.435ZM290.11 328.569C302.088 328.569 311.467 325.179 318.247 318.399C325.027 311.393 328.417 301.336 328.417 288.228V239.412C328.417 226.304 325.027 216.36 318.247 209.58C311.467 202.574 302.088 199.071 290.11 199.071C278.584 199.071 269.431 202.687 262.651 209.919C256.097 216.925 252.82 226.756 252.82 239.412V288.228C252.82 300.884 256.097 310.828 262.651 318.06C269.431 325.066 278.584 328.569 290.11 328.569Z" fill="#222C2C"/>
<path d="M166.079 107.565C181.447 107.565 193.651 111.746 202.691 120.108C211.731 128.696 216.251 140.335 216.251 155.025L208.454 146.55H216.251V110.955H252.524V358.425H215.912V305.202L216.929 261.81H208.454L216.251 253.335C216.251 268.025 211.731 279.551 202.691 287.913C193.425 296.501 181.221 300.795 166.079 300.795C147.321 300.795 132.292 294.467 120.992 281.811C109.692 269.155 104.042 251.979 104.042 230.283V177.738C104.042 156.268 109.692 139.205 120.992 126.549C132.292 113.893 147.321 107.565 166.079 107.565ZM178.622 139.431C166.644 139.431 157.265 142.821 150.485 149.601C143.705 156.607 140.315 166.664 140.315 179.772V228.588C140.315 241.696 143.705 251.64 150.485 258.42C157.265 265.426 166.644 268.929 178.622 268.929C190.148 268.929 199.301 265.313 206.081 258.081C212.635 251.075 215.912 241.244 215.912 228.588V179.772C215.912 167.116 212.635 157.172 206.081 149.94C199.301 142.934 190.148 139.431 178.622 139.431Z" fill="url(#paint1_linear_7_2)"/>
<defs>
<radialGradient id="paint0_radial_7_2" cx="0" cy="0" r="1" gradientUnits="userSpaceOnUse" gradientTransform="translate(7.18236e-06 45) rotate(38.8493) scale(755.651)">
<stop offset="0.43134" stop-color="white"/>
<stop offset="1" stop-color="#C9F05A"/>
</radialGradient>
<linearGradient id="paint1_linear_7_2" x1="155.189" y1="157.791" x2="332.811" y2="336.709" gradientUnits="userSpaceOnUse">
<stop stop-color="#131715"/>
<stop offset="1" stop-color="#7A8474"/>
</linearGradient>
</defs>
</svg>
